<svg id="visual" viewBox="0 0 900 600" width="900" height="600" xmlns="http://www.w3.org/2000/svg" xmlns:xlink="http://www.w3.org/1999/xlink" version="1.1"><rect x="0" y="0" width="900" height="600" fill="#0057A5"></rect><path d="M0 381L12.5 381.8C25 382.7 50 384.3 75 388.3C100 392.3 125 398.7 150 404.2C175 409.7 200 414.3 225 412.2C250 410 275 401 300 402C325 403 350 414 375 421C400 428 425 431 450 424.2C475 417.3 500 400.7 525 395.5C550 390.3 575 396.7 600 402.8C625 409 650 415 675 412.8C700 410.7 725 400.3 750 395.7C775 391 800 392 825 392.3C850 392.7 875 392.3 887.5 392.2L900 392L900 601L887.5 601C875 601 850 601 825 601C800 601 775 601 750 601C725 601 700 601 675 601C650 601 625 601 600 601C575 601 550 601 525 601C500 601 475 601 450 601C425 601 400 601 375 601C350 601 325 601 300 601C275 601 250 601 225 601C200 601 175 601 150 601C125 601 100 601 75 601C50 601 25 601 12.5 601L0 601Z" fill="#ffffff"></path><path d="M0 410L12.5 409.3C25 408.7 50 407.3 75 415.2C100 423 125 440 150 449.2C175 458.3 200 459.7 225 458.3C250 457 275 453 300 453.5C325 454 350 459 375 461.8C400 464.7 425 465.3 450 463.7C475 462 500 458 525 447C550 436 575 418 600 411C625 404 650 408 675 418.7C700 429.3 725 446.7 750 450C775 453.3 800 442.7 825 440.5C850 438.3 875 444.7 887.5 447.8L900 451L900 601L887.5 601C875 601 850 601 825 601C800 601 775 601 750 601C725 601 700 601 675 601C650 601 625 601 600 601C575 601 550 601 525 601C500 601 475 601 450 601C425 601 400 601 375 601C350 601 325 601 300 601C275 601 250 601 225 601C200 601 175 601 150 601C125 601 100 601 75 601C50 601 25 601 12.5 601L0 601Z" fill="#e5e8f4"></path><path d="M0 434L12.5 437.3C25 440.7 50 447.3 75 446.8C100 446.3 125 438.7 150 434C175 429.3 200 427.7 225 433.8C250 440 275 454 300 458.3C325 462.7 350 457.3 375 451.5C400 445.7 425 439.3 450 436.2C475 433 500 433 525 435.8C550 438.7 575 444.3 600 446C625 447.7 650 445.3 675 441.3C700 437.3 725 431.7 750 433.5C775 435.3 800 444.7 825 453C850 461.3 875 468.7 887.5 472.3L900 476L900 601L887.5 601C875 601 850 601 825 601C800 601 775 601 750 601C725 601 700 601 675 601C650 601 625 601 600 601C575 601 550 601 525 601C500 601 475 601 450 601C425 601 400 601 375 601C350 601 325 601 300 601C275 601 250 601 225 601C200 601 175 601 150 601C125 601 100 601 75 601C50 601 25 601 12.5 601L0 601Z" fill="#cbd2e9"></path><path d="M0 496L12.5 492.7C25 489.3 50 482.7 75 476.2C100 469.7 125 463.3 150 463.2C175 463 200 469 225 476.3C250 483.7 275 492.3 300 494.2C325 496 350 491 375 489C400 487 425 488 450 485.3C475 482.7 500 476.3 525 477.5C550 478.7 575 487.3 600 487.2C625 487 650 478 675 470.5C700 463 725 457 750 460.8C775 464.7 800 478.3 825 480.3C850 482.3 875 472.7 887.5 467.8L900 463L900 601L887.5 601C875 601 850 601 825 601C800 601 775 601 750 601C725 601 700 601 675 601C650 601 625 601 600 601C575 601 550 601 525 601C500 601 475 601 450 601C425 601 400 601 375 601C350 601 325 601 300 601C275 601 250 601 225 601C200 601 175 601 150 601C125 601 100 601 75 601C50 601 25 601 12.5 601L0 601Z" fill="#b1bcdd"></path><path d="M0 487L12.5 488.8C25 490.7 50 494.3 75 492.3C100 490.3 125 482.7 150 481.3C175 480 200 485 225 491.3C250 497.7 275 505.3 300 503.3C325 501.3 350 489.7 375 487.5C400 485.3 425 492.7 450 492.5C475 492.3 500 484.7 525 480.2C550 475.7 575 474.3 600 478.2C625 482 650 491 675 498.5C700 506 725 512 750 515.2C775 518.3 800 518.7 825 518.8C850 519 875 519 887.5 519L900 519L900 601L887.5 601C875 601 850 601 825 601C800 601 775 601 750 601C725 601 700 601 675 601C650 601 625 601 600 601C575 601 550 601 525 601C500 601 475 601 450 601C425 601 400 601 375 601C350 601 325 601 300 601C275 601 250 601 225 601C200 601 175 601 150 601C125 601 100 601 75 601C50 601 25 601 12.5 601L0 601Z" fill="#97a6d2"></path><path d="M0 517L12.5 518.7C25 520.3 50 523.7 75 523.2C100 522.7 125 518.3 150 515.3C175 512.3 200 510.7 225 508.7C250 506.7 275 504.3 300 502.7C325 501 350 500 375 498C400 496 425 493 450 491.5C475 490 500 490 525 492.8C550 495.7 575 501.3 600 501.7C625 502 650 497 675 494.7C700 492.3 725 492.7 750 495.3C775 498 800 503 825 505C850 507 875 506 887.5 505.5L900 505L900 601L887.5 601C875 601 850 601 825 601C800 601 775 601 750 601C725 601 700 601 675 601C650 601 625 601 600 601C575 601 550 601 525 601C500 601 475 601 450 601C425 601 400 601 375 601C350 601 325 601 300 601C275 601 250 601 225 601C200 601 175 601 150 601C125 601 100 601 75 601C50 601 25 601 12.5 601L0 601Z" fill="#7c91c7"></path><path d="M0 514L12.5 513.8C25 513.7 50 513.3 75 514.8C100 516.3 125 519.7 150 523C175 526.3 200 529.7 225 535C250 540.3 275 547.7 300 546.7C325 545.7 350 536.3 375 531.7C400 527 425 527 450 530.3C475 533.7 500 540.3 525 543.8C550 547.3 575 547.7 600 543.8C625 540 650 532 675 533C700 534 725 544 750 543.3C775 542.7 800 531.3 825 526.5C850 521.7 875 523.3 887.5 524.2L900 525L900 601L887.5 601C875 601 850 601 825 601C800 601 775 601 750 601C725 601 700 601 675 601C650 601 625 601 600 601C575 601 550 601 525 601C500 601 475 601 450 601C425 601 400 601 375 601C350 601 325 601 300 601C275 601 250 601 225 601C200 601 175 601 150 601C125 601 100 601 75 601C50 601 25 601 12.5 601L0 601Z" fill="#607dbc"></path><path d="M0 542L12.5 542.3C25 542.7 50 543.3 75 548C100 552.7 125 561.3 150 565.5C175 569.7 200 569.3 225 563.7C250 558 275 547 300 544C325 541 350 546 375 549.5C400 553 425 555 450 557.3C475 559.7 500 562.3 525 559C550 555.7 575 546.3 600 544.5C625 542.7 650 548.3 675 550.3C700 552.3 725 550.7 750 553.3C775 556 800 563 825 564.7C850 566.3 875 562.7 887.5 560.8L900 559L900 601L887.5 601C875 601 850 601 825 601C800 601 775 601 750 601C725 601 700 601 675 601C650 601 625 601 600 601C575 601 550 601 525 601C500 601 475 601 450 601C425 601 400 601 375 601C350 601 325 601 300 601C275 601 250 601 225 601C200 601 175 601 150 601C125 601 100 601 75 601C50 601 25 601 12.5 601L0 601Z" fill="#3f6ab0"></path><path d="M0 582L12.5 578.7C25 575.3 50 568.7 75 566.5C100 564.3 125 566.7 150 568.3C175 570 200 571 225 571.3C250 571.7 275 571.3 300 570.8C325 570.3 350 569.7 375 572.7C400 575.7 425 582.3 450 582C475 581.7 500 574.3 525 573.5C550 572.7 575 578.3 600 582.3C625 586.3 650 588.7 675 586.8C700 585 725 579 750 573.8C775 568.7 800 564.3 825 564.3C850 564.3 875 568.7 887.5 570.8L900 573L900 601L887.5 601C875 601 850 601 825 601C800 601 775 601 750 601C725 601 700 601 675 601C650 601 625 601 600 601C575 601 550 601 525 601C500 601 475 601 450 601C425 601 400 601 375 601C350 601 325 601 300 601C275 601 250 601 225 601C200 601 175 601 150 601C125 601 100 601 75 601C50 601 25 601 12.5 601L0 601Z" fill="#0057a5"></path></svg>